<svg xmlns="http://www.w3.org/2000/svg" viewBox="0 0 358 54"><path fill="none" d="M0 0h358v54H0z"/><g fill="#274461"><path d="M356.23 19.825h-1.49l-1.816 5.355-1.947-5.355h-1.592l2.812 7.343-.213.681c-.184.61-.524.896-1.065.896-.326 0-.611-.086-.924-.299l-.482 1.037c.455.312.924.453 1.506.453 1.051 0 1.762-.566 2.188-1.746l3.023-8.365zM342.228 27.253h1.49v-4.445c0-1.15.684-1.875 1.762-1.875.98 0 1.42.54 1.42 1.733v4.587h1.492v-4.658c0-1.861-.881-2.912-2.443-2.912-1.021 0-1.775.426-2.23 1.292v-1.15h-1.49v7.428zM338.408 24.739c0 .881-.754 1.506-1.818 1.506-.767 0-1.207-.383-1.207-1.037 0-.923 1.008-1.393 3.025-1.406v.937zm2.258 1.449c-.057.013-.143.013-.17.013-.398 0-.598-.226-.598-.695v-3.125c0-1.747-.98-2.698-2.783-2.698-1.207 0-2.088.326-2.982 1.107l.768.966c.738-.625 1.348-.882 2.115-.882.965 0 1.393.469 1.393 1.534v.384c-1.266.028-1.875.1-2.586.298-1.264.37-1.916 1.122-1.916 2.201 0 1.25.938 2.103 2.328 2.103.938 0 1.648-.356 2.273-1.164.254.752.766 1.092 1.633 1.092.127 0 .27-.014.525-.042v-1.092zM329.193 20.875c1.234 0 1.961.995 1.961 2.699 0 1.748-.668 2.627-1.988 2.627-1.322 0-2.074-.965-2.074-2.654 0-1.676.781-2.672 2.101-2.672m-3.55 8.961h1.49v-3.747c.527.851 1.35 1.307 2.402 1.307 1.902 0 3.139-1.52 3.139-3.878 0-2.314-1.252-3.834-3.139-3.834-1.023 0-1.834.454-2.402 1.335v-1.193h-1.49v10.01zM314.646 19.825h-1.492v7.428h1.492v-4.459c0-1.122.639-1.861 1.619-1.861.865 0 1.277.553 1.277 1.718v4.602h1.492v-4.459c0-1.122.639-1.861 1.633-1.861.867 0 1.264.54 1.264 1.718v4.602h1.492v-4.658c0-1.833-.867-2.912-2.357-2.912-.98 0-1.705.426-2.301 1.335-.426-.909-1.08-1.335-2.061-1.335-.922 0-1.605.426-2.059 1.264v-1.122zM307.783 20.875c1.234 0 2.018 1.037 2.018 2.657 0 1.661-.783 2.669-2.074 2.669-1.25 0-2.031-1.007-2.031-2.654-.001-1.691.765-2.672 2.087-2.672m0-1.191c-2.131 0-3.637 1.604-3.637 3.877 0 2.23 1.506 3.835 3.594 3.835 2.102 0 3.607-1.62 3.607-3.878.001-2.216-1.505-3.834-3.564-3.834M301.543 23.873c-.496 1.605-1.32 2.301-2.713 2.301-1.945 0-3.109-1.491-3.109-3.99 0-2.5 1.164-4.02 3.082-4.02 1.334 0 2.115.639 2.641 2.186l1.336-.511c-.369-.952-.639-1.392-1.123-1.86-.709-.682-1.676-1.036-2.867-1.036-2.729 0-4.617 2.144-4.617 5.254 0 3.139 1.848 5.199 4.631 5.199 1.037 0 1.902-.271 2.598-.796.668-.511 1.066-1.094 1.492-2.201l-1.351-.526zM287.611 16.559h1.492v10.694h-1.492zM282.227 20.875c1.234 0 2.016 1.037 2.016 2.657 0 1.661-.781 2.669-2.074 2.669-1.248 0-2.029-1.007-2.029-2.654-.001-1.691.764-2.672 2.087-2.672m0-1.191c-2.131 0-3.637 1.604-3.637 3.877 0 2.23 1.506 3.835 3.594 3.835 2.102 0 3.605-1.62 3.605-3.878 0-2.216-1.504-3.834-3.562-3.834M273.508 27.253H275v-3.976c0-1.378.682-2.229 1.76-2.229.355 0 .568.057.881.213l.498-1.277c-.426-.213-.754-.299-1.18-.299-.852 0-1.477.426-1.959 1.363v-1.222h-1.492v7.427zM267.148 21.019h1.109v4.388c0 1.236.781 1.989 2.074 1.989.625 0 1.092-.171 1.59-.554l-.469-.995c-.385.257-.584.327-.938.327-.525 0-.768-.312-.768-.994v-4.161h1.762v-1.193h-1.762v-2.229l-1.49.426v1.804h-1.109v1.192zM259.678 27.253h1.492v-4.445c0-1.15.682-1.875 1.76-1.875.98 0 1.422.54 1.422 1.733v4.587h1.49v-4.658c0-1.861-.881-2.912-2.443-2.912-1.021 0-1.775.426-2.229 1.292v-1.15h-1.492v7.428zM254.305 20.875c1.236 0 2.018 1.037 2.018 2.657 0 1.661-.781 2.669-2.074 2.669-1.248 0-2.029-1.007-2.029-2.654-.001-1.691.764-2.672 2.085-2.672m0-1.191c-2.129 0-3.635 1.604-3.635 3.877 0 2.23 1.506 3.835 3.592 3.835 2.104 0 3.607-1.62 3.607-3.878 0-2.216-1.504-3.834-3.564-3.834M248.066 23.873c-.498 1.605-1.322 2.301-2.713 2.301-1.945 0-3.109-1.491-3.109-3.99 0-2.5 1.164-4.02 3.08-4.02 1.336 0 2.117.639 2.643 2.186l1.336-.511c-.369-.952-.641-1.392-1.123-1.86-.709-.682-1.676-1.036-2.869-1.036-2.727 0-4.615 2.144-4.615 5.254 0 3.139 1.846 5.199 4.629 5.199 1.037 0 1.904-.271 2.6-.796.668-.511 1.064-1.094 1.492-2.201l-1.351-.526zM232.656 20.82c-.17-.512-.256-.952-.256-1.335 0-.852.385-1.364 1.037-1.364.512 0 .838.356.838.938 0 .766-.412 1.221-1.619 1.761m-.822 1.476c.525 1.108 1.334 2.287 2.285 3.337-.568.398-1.094.582-1.676.582-1.107 0-1.875-.767-1.875-1.875 0-.893.37-1.476 1.266-2.044m5.68 3.723a.91.91 0 0 1-.383.085c-.369 0-.684-.171-1.18-.626.639-.894 1.051-1.988 1.18-3.209h-1.236c-.127.909-.412 1.69-.824 2.344-.795-.881-1.52-1.931-2.002-2.883 1.732-.768 2.443-1.549 2.443-2.684 0-1.166-.881-2.033-2.074-2.033-1.434 0-2.371.982-2.371 2.486 0 .569.1 1.123.354 1.847-1.732.866-2.398 1.747-2.398 3.153 0 1.747 1.305 2.869 3.352 2.869.994 0 1.775-.256 2.598-.866.711.597 1.25.823 1.932.823.242 0 .412-.027.768-.113l-.159-1.193zM220.287 22.808c.24-1.349.867-1.974 1.932-1.974 1.121 0 1.646.567 1.803 1.974h-3.735zm3.904 2.272c-.482.824-.979 1.122-1.846 1.122-.568 0-1.021-.141-1.377-.44-.455-.396-.654-.909-.738-1.874h5.254v-.454c0-2.344-1.221-3.75-3.266-3.75-2.061 0-3.494 1.59-3.494 3.891 0 2.273 1.477 3.821 3.621 3.821 1.377 0 2.359-.541 3.025-1.69l-1.179-.626zM213.852 27.253h1.689l2.514-7.428h-1.475l-1.834 5.894-1.859-5.894h-1.59zM209.203 16.8a.922.922 0 0 0-.922.923.917.917 0 0 0 1.832 0 .928.928 0 0 0-.91-.923m-.752 10.453h1.492v-7.428h-1.492v7.428zM202.594 27.253h1.492v-3.976c0-1.378.682-2.229 1.762-2.229.355 0 .566.057.879.213l.498-1.277c-.426-.213-.754-.299-1.18-.299-.852 0-1.477.426-1.959 1.363v-1.222h-1.492v7.427zM193.939 26.032V18.32h1.988c2.131 0 3.281 1.363 3.281 3.848 0 2.514-1.15 3.863-3.268 3.863h-2.001zm-1.49 1.221h3.379c3.152 0 4.928-1.831 4.928-5.084 0-3.195-1.816-5.07-4.885-5.07h-3.422v10.154z"/><path d="M185.619 22.808c-.156-1.407-.682-1.974-1.803-1.974-1.066 0-1.69.625-1.933 1.974h3.736zm.17 2.272c-.482.824-.979 1.122-1.846 1.122-.568 0-1.022-.141-1.377-.44-.455-.396-.653-.909-.738-1.874h5.254v-.454c0-2.344-1.222-3.75-3.266-3.75-2.061 0-3.494 1.59-3.494 3.891 0 2.273 1.477 3.821 3.621 3.821 1.378 0 2.357-.541 3.025-1.69l-1.179-.626z" fill-rule="evenodd" clip-rule="evenodd"/><path d="M172.442 27.253h1.491v-4.445c0-1.15.682-1.875 1.761-1.875.98 0 1.42.54 1.42 1.733v4.587h1.492v-4.658c0-1.861-.881-2.912-2.443-2.912-1.023 0-1.775.426-2.23 1.292v-4.417h-1.491v10.695zM166.418 27.253h1.491V18.32h3.068v-1.222h-7.627v1.222h3.068z"/></g><g fill="#819eb1"><path d="M3.585 40.472v-3.706h3.331c1.442 0 2.108.577 2.108 1.84 0 1.269-.622 1.866-1.954 1.866H3.585zm0 6.749v-4.218h3.53c1.599 0 2.442.733 2.442 2.087 0 1.378-.822 2.131-2.309 2.131H3.585zM.1 49.93h7.415c3.618 0 5.551-1.556 5.551-4.464 0-1.997-.822-3.107-2.842-3.795 1.62-.755 2.241-1.71 2.241-3.418 0-2.733-1.82-4.196-5.193-4.196H.1V49.93zM20.923 40.671c1.555 0 2.421 1.222 2.421 3.418 0 2.221-.889 3.444-2.487 3.444-1.576 0-2.464-1.224-2.464-3.421 0-2.263.867-3.441 2.53-3.441zm.024-2.641c-3.553 0-6.017 2.531-6.017 6.148 0 3.531 2.42 5.996 5.927 5.996 3.486 0 5.951-2.509 5.951-6.107 0-3.505-2.465-6.037-5.861-6.037zM38.052 39.406c-1.333-.978-2.688-1.376-4.551-1.376-2.976 0-4.729 1.376-4.729 3.664 0 2.019 1.198 3.129 3.906 3.639 1.621.312 1.71.334 2.021.489.289.157.444.399.444.732 0 .733-.667 1.111-1.909 1.111-1.377 0-2.4-.4-3.465-1.378l-1.576 2.199c1.399 1.199 2.887 1.688 5.129 1.688 3.241 0 5.105-1.401 5.105-3.842 0-1.243-.488-2.175-1.464-2.775-.645-.398-1.377-.621-2.732-.865-1.887-.357-2.286-.556-2.286-1.244 0-.621.467-.907 1.487-.907 1.155 0 2.153.33 3.063 1.017l1.557-2.152zM48.311 45.755c-.511 1.265-1.154 1.778-2.242 1.778-1.576 0-2.42-1.179-2.42-3.421 0-2.22.844-3.441 2.375-3.441.956 0 1.466.443 2.021 1.754l2.819-1.311c-1.044-2.063-2.665-3.084-4.951-3.084-3.42 0-5.727 2.511-5.727 6.172 0 3.617 2.263 5.973 5.749 5.973 2.375 0 4.062-1.022 5.062-3.109l-2.686-1.311zM53.059 49.93h3.397v-6.837c0-1.535.776-2.422 2.129-2.422 1.177 0 1.733.69 1.733 2.198v7.061h3.396v-7.505c0-2.797-1.331-4.395-3.662-4.395-1.643 0-2.819.685-3.596 2.109v-6.93h-3.397V49.93zM84.883 49.93h1.975v-8.681h-6.814v2.642h3.351v.135c0 1.931-1.488 3.286-3.617 3.286-2.6 0-4.062-1.911-4.062-5.265 0-3.396 1.439-5.37 3.928-5.37 1.688 0 2.643.755 3.354 2.639l3.24-1.285c-.531-1.222-.932-1.799-1.643-2.487-1.223-1.132-2.908-1.731-4.885-1.731-4.551 0-7.705 3.398-7.705 8.258 0 4.841 2.977 8.105 7.35 8.105 2.176 0 3.664-.779 4.904-2.578l.624 2.332zM89.692 49.93h3.396v-5.841c0-1.774.955-2.883 2.443-2.883.555 0 .91.109 1.398.398l.844-3.062c-.533-.335-1.045-.468-1.688-.468-1.309 0-2.244.688-2.998 2.222v-1.977h-3.396V49.93zM104.264 40.671c1.555 0 2.418 1.222 2.418 3.418 0 2.221-.887 3.444-2.486 3.444-1.576 0-2.463-1.224-2.463-3.421 0-2.263.865-3.441 2.531-3.441zm.022-2.641c-3.553 0-6.018 2.531-6.018 6.148 0 3.531 2.42 5.996 5.928 5.996 3.488 0 5.949-2.509 5.949-6.107 0-3.505-2.461-6.037-5.859-6.037zM119.334 49.93h3.397V38.32h-3.397v6.816c0 1.486-.777 2.374-2.086 2.374-1.09 0-1.576-.666-1.576-2.132v-7.059h-3.398v7.459c0 2.796 1.311 4.396 3.596 4.396 1.623 0 2.709-.624 3.465-2.022v1.778zM131.401 40.671c1.512 0 2.377 1.266 2.377 3.465 0 2.266-.822 3.397-2.42 3.397-1.6 0-2.488-1.224-2.488-3.397 0-2.22.91-3.465 2.531-3.465zm-5.838 13.301h3.396V48.2c.756 1.309 1.955 1.976 3.531 1.976 2.885 0 4.748-2.378 4.748-6.086 0-3.64-1.885-6.059-4.727-6.059-1.533 0-2.664.664-3.553 2.043V38.32h-3.396v15.652z"/></g><path d="M15.851 8.934c0 2.924-1.871 3.493-4.663 3.493H6.141V4.922h5.469c2.56 0 4.241 1.17 4.241 4.012zm6.96 18.327l-6.338-10.955c3.729-1.2 5.382-3.561 5.382-8.07 0-5.299-3.899-8.185-9.749-8.185H.1v27.203h6.041V17.099h4.066l5.353 10.162h7.251zM29.683 14.979c.539-2.877 1.905-4.158 4.199-4.158 2.335 0 3.549 1.242 3.854 4.158h-8.053zm-.114 3.614h13.725V17c0-6.606-3.52-10.57-9.372-10.57-5.932 0-10.103 4.47-10.103 10.845 0 6.178 4.209 10.415 10.37 10.415 3.94 0 6.886-1.553 8.722-4.585l-4.552-2.294c-1.071 1.747-2.181 2.411-4.094 2.411-1.454 0-2.525-.428-3.328-1.359-.727-.781-1.102-1.442-1.368-3.27zM64.425 27.262l-7.186-10.837 6.497-9.476h-6.037l-3.558 5.787-3.554-5.787h-6.728l6.499 9.941-6.957 10.372h6.039l4.129-6.525 4.014 6.525zM78.939 12.371l.002-5.768c-3.271-.177-4.707.804-6.244 3.803V6.949h-5.845v20.312h5.845v-9.893c0-3.045 1.668-5.648 6.242-4.997zM94.427 17.046c0 3.884-1.527 6.021-4.279 6.021-2.715 0-4.244-2.136-4.244-5.981 0-3.963 1.49-6.021 4.359-6.021 2.674 0 4.164 2.136 4.164 5.981zm5.965-.039c0-6.137-4.244-10.562-10.092-10.562-6.115 0-10.361 4.426-10.361 10.758 0 6.176 4.17 10.486 10.209 10.486 6-.001 10.244-4.391 10.244-10.682zM110.089 11.578h4.205V6.957h-4.205V.821l-5.846 2.058v4.078h-2.766v4.621h2.766v9.39c0 4.08 2.254 6.407 6.191 6.407 1.152 0 2.125-.065 3.732-.197v-4.427c-.807 0-1.711-.02-2.395-.076-1.201-.095-1.684-.583-1.684-2.096v-9.001zM136.163 27.262V14.134c0-4.895-2.291-7.689-6.307-7.689-2.828 0-4.856 1.202-6.191 3.689V.059h-5.852v27.203h5.852V15.299c0-2.024 1.336-4.234 3.67-4.234 2.025 0 2.98 1.204 2.98 3.846v12.351h5.848z" fill="#de0025"/><path d="M15.851 8.934c0 2.924-1.871 3.493-4.663 3.493H6.141V4.922h5.469c2.56 0 4.241 1.17 4.241 4.012zm6.96 18.327l-6.338-10.955c3.729-1.2 5.382-3.561 5.382-8.07 0-5.299-3.899-8.185-9.749-8.185H.1v27.203h6.041V17.099h4.066l5.353 10.162h7.251z" fill="#de0025"/></svg>